<mxfile host="app.diagrams.net" modified="2021-03-06T11:21:00.529Z" agent="5.0 (Windows NT 10.0; Win64; x64) AppleWebKit/537.36 (KHTML, like Gecko) Chrome/88.0.4324.190 Safari/537.36" etag="hcsDh_fPT_rtxKOo_MKi" version="14.2.9" type="github">
  <diagram id="0IR59ZR2IGj7B7mBDBZi" name="Main">
    <mxGraphModel dx="1021" dy="529" grid="1" gridSize="10" guides="1" tooltips="1" connect="1" arrows="1" fold="1" page="1" pageScale="1" pageWidth="850" pageHeight="1100" math="0" shadow="0">
      <root>
        <mxCell id="0" />
        <mxCell id="1" parent="0" />
        <mxCell id="Aa0VNhOiYINbgEAZ1Yyl-1" style="edgeStyle=orthogonalEdgeStyle;rounded=0;orthogonalLoop=1;jettySize=auto;html=1;" parent="1" source="Aa0VNhOiYINbgEAZ1Yyl-3" target="Aa0VNhOiYINbgEAZ1Yyl-9" edge="1">
          <mxGeometry relative="1" as="geometry" />
        </mxCell>
        <mxCell id="Aa0VNhOiYINbgEAZ1Yyl-2" style="edgeStyle=orthogonalEdgeStyle;rounded=0;orthogonalLoop=1;jettySize=auto;html=1;entryX=1;entryY=0.5;entryDx=0;entryDy=0;entryPerimeter=0;" parent="1" source="Aa0VNhOiYINbgEAZ1Yyl-3" target="Aa0VNhOiYINbgEAZ1Yyl-6" edge="1">
          <mxGeometry relative="1" as="geometry" />
        </mxCell>
        <mxCell id="Aa0VNhOiYINbgEAZ1Yyl-3" value="User Login" style="rounded=1;whiteSpace=wrap;html=1;" parent="1" vertex="1">
          <mxGeometry x="1320" y="630" width="120" height="60" as="geometry" />
        </mxCell>
        <mxCell id="Aa0VNhOiYINbgEAZ1Yyl-4" style="edgeStyle=orthogonalEdgeStyle;rounded=0;orthogonalLoop=1;jettySize=auto;html=1;" parent="1" source="Aa0VNhOiYINbgEAZ1Yyl-6" target="Aa0VNhOiYINbgEAZ1Yyl-35" edge="1">
          <mxGeometry relative="1" as="geometry" />
        </mxCell>
        <mxCell id="Aa0VNhOiYINbgEAZ1Yyl-5" style="edgeStyle=orthogonalEdgeStyle;rounded=0;orthogonalLoop=1;jettySize=auto;html=1;entryX=0.5;entryY=0;entryDx=0;entryDy=0;" parent="1" source="Aa0VNhOiYINbgEAZ1Yyl-6" target="Aa0VNhOiYINbgEAZ1Yyl-22" edge="1">
          <mxGeometry relative="1" as="geometry" />
        </mxCell>
        <mxCell id="Aa0VNhOiYINbgEAZ1Yyl-6" value="DB" style="shape=cylinder3;whiteSpace=wrap;html=1;boundedLbl=1;backgroundOutline=1;size=15;" parent="1" vertex="1">
          <mxGeometry x="1110" y="620" width="60" height="80" as="geometry" />
        </mxCell>
        <mxCell id="Aa0VNhOiYINbgEAZ1Yyl-7" style="edgeStyle=orthogonalEdgeStyle;rounded=0;orthogonalLoop=1;jettySize=auto;html=1;entryX=0.5;entryY=0;entryDx=0;entryDy=0;" parent="1" source="Aa0VNhOiYINbgEAZ1Yyl-9" target="Aa0VNhOiYINbgEAZ1Yyl-10" edge="1">
          <mxGeometry relative="1" as="geometry" />
        </mxCell>
        <mxCell id="Aa0VNhOiYINbgEAZ1Yyl-8" style="edgeStyle=orthogonalEdgeStyle;rounded=0;orthogonalLoop=1;jettySize=auto;html=1;entryX=0.5;entryY=0;entryDx=0;entryDy=0;" parent="1" source="Aa0VNhOiYINbgEAZ1Yyl-9" target="Aa0VNhOiYINbgEAZ1Yyl-11" edge="1">
          <mxGeometry relative="1" as="geometry" />
        </mxCell>
        <mxCell id="xh86Ql2Wlu-i7z2BAQE6-18" style="edgeStyle=orthogonalEdgeStyle;rounded=0;orthogonalLoop=1;jettySize=auto;html=1;entryX=0.5;entryY=0;entryDx=0;entryDy=0;" parent="1" source="Aa0VNhOiYINbgEAZ1Yyl-9" target="xh86Ql2Wlu-i7z2BAQE6-3" edge="1">
          <mxGeometry relative="1" as="geometry" />
        </mxCell>
        <mxCell id="Aa0VNhOiYINbgEAZ1Yyl-9" value="Home Page" style="rounded=1;whiteSpace=wrap;html=1;" parent="1" vertex="1">
          <mxGeometry x="1320" y="790" width="120" height="60" as="geometry" />
        </mxCell>
        <mxCell id="xh86Ql2Wlu-i7z2BAQE6-23" style="edgeStyle=orthogonalEdgeStyle;rounded=0;orthogonalLoop=1;jettySize=auto;html=1;entryX=0.5;entryY=0;entryDx=0;entryDy=0;" parent="1" source="Aa0VNhOiYINbgEAZ1Yyl-10" target="xh86Ql2Wlu-i7z2BAQE6-19" edge="1">
          <mxGeometry relative="1" as="geometry">
            <mxPoint x="1010" y="1069.9999999999998" as="targetPoint" />
          </mxGeometry>
        </mxCell>
        <mxCell id="Aa0VNhOiYINbgEAZ1Yyl-10" value="File Upload" style="rounded=1;whiteSpace=wrap;html=1;" parent="1" vertex="1">
          <mxGeometry x="1100" y="900" width="120" height="60" as="geometry" />
        </mxCell>
        <mxCell id="Aa0VNhOiYINbgEAZ1Yyl-11" value="Shared Files" style="rounded=1;whiteSpace=wrap;html=1;" parent="1" vertex="1">
          <mxGeometry x="1510" y="910" width="120" height="60" as="geometry" />
        </mxCell>
        <mxCell id="Aa0VNhOiYINbgEAZ1Yyl-12" style="edgeStyle=orthogonalEdgeStyle;rounded=0;orthogonalLoop=1;jettySize=auto;html=1;entryX=0.5;entryY=0;entryDx=0;entryDy=0;" parent="1" source="Aa0VNhOiYINbgEAZ1Yyl-17" target="Aa0VNhOiYINbgEAZ1Yyl-18" edge="1">
          <mxGeometry relative="1" as="geometry" />
        </mxCell>
        <mxCell id="Aa0VNhOiYINbgEAZ1Yyl-13" style="edgeStyle=orthogonalEdgeStyle;rounded=0;orthogonalLoop=1;jettySize=auto;html=1;entryX=0.5;entryY=0;entryDx=0;entryDy=0;" parent="1" source="Aa0VNhOiYINbgEAZ1Yyl-17" target="Aa0VNhOiYINbgEAZ1Yyl-21" edge="1">
          <mxGeometry relative="1" as="geometry" />
        </mxCell>
        <mxCell id="Aa0VNhOiYINbgEAZ1Yyl-14" style="edgeStyle=orthogonalEdgeStyle;rounded=0;orthogonalLoop=1;jettySize=auto;html=1;entryX=0.429;entryY=0.021;entryDx=0;entryDy=0;entryPerimeter=0;" parent="1" source="Aa0VNhOiYINbgEAZ1Yyl-17" target="Aa0VNhOiYINbgEAZ1Yyl-19" edge="1">
          <mxGeometry relative="1" as="geometry" />
        </mxCell>
        <mxCell id="Aa0VNhOiYINbgEAZ1Yyl-15" style="edgeStyle=orthogonalEdgeStyle;rounded=0;orthogonalLoop=1;jettySize=auto;html=1;entryX=0.5;entryY=0;entryDx=0;entryDy=0;" parent="1" source="Aa0VNhOiYINbgEAZ1Yyl-17" target="Aa0VNhOiYINbgEAZ1Yyl-20" edge="1">
          <mxGeometry relative="1" as="geometry" />
        </mxCell>
        <mxCell id="Aa0VNhOiYINbgEAZ1Yyl-16" style="edgeStyle=orthogonalEdgeStyle;rounded=0;orthogonalLoop=1;jettySize=auto;html=1;" parent="1" source="Aa0VNhOiYINbgEAZ1Yyl-17" target="Aa0VNhOiYINbgEAZ1Yyl-6" edge="1">
          <mxGeometry relative="1" as="geometry" />
        </mxCell>
        <mxCell id="Aa0VNhOiYINbgEAZ1Yyl-17" value="Admin Login" style="rounded=1;whiteSpace=wrap;html=1;" parent="1" vertex="1">
          <mxGeometry x="1990" y="510" width="120" height="60" as="geometry" />
        </mxCell>
        <mxCell id="Aa0VNhOiYINbgEAZ1Yyl-18" value="See And Manage Users" style="rounded=0;whiteSpace=wrap;html=1;" parent="1" vertex="1">
          <mxGeometry x="1820" y="610" width="120" height="60" as="geometry" />
        </mxCell>
        <mxCell id="Aa0VNhOiYINbgEAZ1Yyl-19" value="Make Announcements" style="rounded=0;whiteSpace=wrap;html=1;" parent="1" vertex="1">
          <mxGeometry x="2110" y="790" width="120" height="60" as="geometry" />
        </mxCell>
        <mxCell id="Aa0VNhOiYINbgEAZ1Yyl-20" value="Make Shared Files" style="rounded=0;whiteSpace=wrap;html=1;" parent="1" vertex="1">
          <mxGeometry x="1910" y="790" width="120" height="60" as="geometry" />
        </mxCell>
        <mxCell id="Aa0VNhOiYINbgEAZ1Yyl-21" value="See Uploaded Files" style="rounded=0;whiteSpace=wrap;html=1;" parent="1" vertex="1">
          <mxGeometry x="2190" y="630" width="120" height="60" as="geometry" />
        </mxCell>
        <mxCell id="Aa0VNhOiYINbgEAZ1Yyl-22" value="Users" style="shape=table;html=1;whiteSpace=wrap;startSize=30;container=1;collapsible=0;childLayout=tableLayout;fontStyle=1;align=center;" parent="1" vertex="1">
          <mxGeometry x="440" y="810" width="520" height="180" as="geometry" />
        </mxCell>
        <mxCell id="Aa0VNhOiYINbgEAZ1Yyl-23" value="" style="shape=partialRectangle;html=1;whiteSpace=wrap;collapsible=0;dropTarget=0;pointerEvents=0;fillColor=none;top=0;left=0;bottom=0;right=0;points=[[0,0.5],[1,0.5]];portConstraint=eastwest;" parent="Aa0VNhOiYINbgEAZ1Yyl-22" vertex="1">
          <mxGeometry y="30" width="520" height="50" as="geometry" />
        </mxCell>
        <mxCell id="Aa0VNhOiYINbgEAZ1Yyl-24" value="Id" style="shape=partialRectangle;html=1;whiteSpace=wrap;connectable=0;fillColor=none;top=0;left=0;bottom=0;right=0;overflow=hidden;" parent="Aa0VNhOiYINbgEAZ1Yyl-23" vertex="1">
          <mxGeometry width="163" height="50" as="geometry" />
        </mxCell>
        <mxCell id="Aa0VNhOiYINbgEAZ1Yyl-25" value="Name" style="shape=partialRectangle;html=1;whiteSpace=wrap;connectable=0;fillColor=none;top=0;left=0;bottom=0;right=0;overflow=hidden;" parent="Aa0VNhOiYINbgEAZ1Yyl-23" vertex="1">
          <mxGeometry x="163" width="164" height="50" as="geometry" />
        </mxCell>
        <mxCell id="Aa0VNhOiYINbgEAZ1Yyl-26" value="Email" style="shape=partialRectangle;html=1;whiteSpace=wrap;connectable=0;fillColor=none;top=0;left=0;bottom=0;right=0;overflow=hidden;" parent="Aa0VNhOiYINbgEAZ1Yyl-23" vertex="1">
          <mxGeometry x="327" width="193" height="50" as="geometry" />
        </mxCell>
        <mxCell id="Aa0VNhOiYINbgEAZ1Yyl-27" value="" style="shape=partialRectangle;html=1;whiteSpace=wrap;collapsible=0;dropTarget=0;pointerEvents=0;fillColor=none;top=0;left=0;bottom=0;right=0;points=[[0,0.5],[1,0.5]];portConstraint=eastwest;" parent="Aa0VNhOiYINbgEAZ1Yyl-22" vertex="1">
          <mxGeometry y="80" width="520" height="50" as="geometry" />
        </mxCell>
        <mxCell id="Aa0VNhOiYINbgEAZ1Yyl-28" value="password" style="shape=partialRectangle;html=1;whiteSpace=wrap;connectable=0;fillColor=none;top=0;left=0;bottom=0;right=0;overflow=hidden;" parent="Aa0VNhOiYINbgEAZ1Yyl-27" vertex="1">
          <mxGeometry width="163" height="50" as="geometry" />
        </mxCell>
        <mxCell id="Aa0VNhOiYINbgEAZ1Yyl-29" value="Created_at" style="shape=partialRectangle;html=1;whiteSpace=wrap;connectable=0;fillColor=none;top=0;left=0;bottom=0;right=0;overflow=hidden;" parent="Aa0VNhOiYINbgEAZ1Yyl-27" vertex="1">
          <mxGeometry x="163" width="164" height="50" as="geometry" />
        </mxCell>
        <mxCell id="Aa0VNhOiYINbgEAZ1Yyl-30" value="Token" style="shape=partialRectangle;html=1;whiteSpace=wrap;connectable=0;fillColor=none;top=0;left=0;bottom=0;right=0;overflow=hidden;" parent="Aa0VNhOiYINbgEAZ1Yyl-27" vertex="1">
          <mxGeometry x="327" width="193" height="50" as="geometry" />
        </mxCell>
        <mxCell id="Aa0VNhOiYINbgEAZ1Yyl-31" value="" style="shape=partialRectangle;html=1;whiteSpace=wrap;collapsible=0;dropTarget=0;pointerEvents=0;fillColor=none;top=0;left=0;bottom=0;right=0;points=[[0,0.5],[1,0.5]];portConstraint=eastwest;" parent="Aa0VNhOiYINbgEAZ1Yyl-22" vertex="1">
          <mxGeometry y="130" width="520" height="50" as="geometry" />
        </mxCell>
        <mxCell id="Aa0VNhOiYINbgEAZ1Yyl-32" value="" style="shape=partialRectangle;html=1;whiteSpace=wrap;connectable=0;fillColor=none;top=0;left=0;bottom=0;right=0;overflow=hidden;" parent="Aa0VNhOiYINbgEAZ1Yyl-31" vertex="1">
          <mxGeometry width="163" height="50" as="geometry" />
        </mxCell>
        <mxCell id="Aa0VNhOiYINbgEAZ1Yyl-33" value="" style="shape=partialRectangle;html=1;whiteSpace=wrap;connectable=0;fillColor=none;top=0;left=0;bottom=0;right=0;overflow=hidden;" parent="Aa0VNhOiYINbgEAZ1Yyl-31" vertex="1">
          <mxGeometry x="163" width="164" height="50" as="geometry" />
        </mxCell>
        <mxCell id="Aa0VNhOiYINbgEAZ1Yyl-34" value="" style="shape=partialRectangle;html=1;whiteSpace=wrap;connectable=0;fillColor=none;top=0;left=0;bottom=0;right=0;overflow=hidden;" parent="Aa0VNhOiYINbgEAZ1Yyl-31" vertex="1">
          <mxGeometry x="327" width="193" height="50" as="geometry" />
        </mxCell>
        <mxCell id="Aa0VNhOiYINbgEAZ1Yyl-35" value="Files" style="shape=table;html=1;whiteSpace=wrap;startSize=30;container=1;collapsible=0;childLayout=tableLayout;fontStyle=1;align=center;" parent="1" vertex="1">
          <mxGeometry x="500" y="300" width="400" height="160" as="geometry" />
        </mxCell>
        <mxCell id="Aa0VNhOiYINbgEAZ1Yyl-36" value="" style="shape=partialRectangle;html=1;whiteSpace=wrap;collapsible=0;dropTarget=0;pointerEvents=0;fillColor=none;top=0;left=0;bottom=0;right=0;points=[[0,0.5],[1,0.5]];portConstraint=eastwest;" parent="Aa0VNhOiYINbgEAZ1Yyl-35" vertex="1">
          <mxGeometry y="30" width="400" height="43" as="geometry" />
        </mxCell>
        <mxCell id="Aa0VNhOiYINbgEAZ1Yyl-37" value="Id" style="shape=partialRectangle;html=1;whiteSpace=wrap;connectable=0;fillColor=none;top=0;left=0;bottom=0;right=0;overflow=hidden;" parent="Aa0VNhOiYINbgEAZ1Yyl-36" vertex="1">
          <mxGeometry width="133" height="43" as="geometry" />
        </mxCell>
        <mxCell id="Aa0VNhOiYINbgEAZ1Yyl-38" value="uid" style="shape=partialRectangle;html=1;whiteSpace=wrap;connectable=0;fillColor=none;top=0;left=0;bottom=0;right=0;overflow=hidden;" parent="Aa0VNhOiYINbgEAZ1Yyl-36" vertex="1">
          <mxGeometry x="133" width="134" height="43" as="geometry" />
        </mxCell>
        <mxCell id="Aa0VNhOiYINbgEAZ1Yyl-39" value="Path" style="shape=partialRectangle;html=1;whiteSpace=wrap;connectable=0;fillColor=none;top=0;left=0;bottom=0;right=0;overflow=hidden;" parent="Aa0VNhOiYINbgEAZ1Yyl-36" vertex="1">
          <mxGeometry x="267" width="133" height="43" as="geometry" />
        </mxCell>
        <mxCell id="Aa0VNhOiYINbgEAZ1Yyl-40" value="" style="shape=partialRectangle;html=1;whiteSpace=wrap;collapsible=0;dropTarget=0;pointerEvents=0;fillColor=none;top=0;left=0;bottom=0;right=0;points=[[0,0.5],[1,0.5]];portConstraint=eastwest;" parent="Aa0VNhOiYINbgEAZ1Yyl-35" vertex="1">
          <mxGeometry y="73" width="400" height="44" as="geometry" />
        </mxCell>
        <mxCell id="Aa0VNhOiYINbgEAZ1Yyl-41" value="Created_at" style="shape=partialRectangle;html=1;whiteSpace=wrap;connectable=0;fillColor=none;top=0;left=0;bottom=0;right=0;overflow=hidden;" parent="Aa0VNhOiYINbgEAZ1Yyl-40" vertex="1">
          <mxGeometry width="133" height="44" as="geometry" />
        </mxCell>
        <mxCell id="Aa0VNhOiYINbgEAZ1Yyl-42" value="Deleted" style="shape=partialRectangle;html=1;whiteSpace=wrap;connectable=0;fillColor=none;top=0;left=0;bottom=0;right=0;overflow=hidden;" parent="Aa0VNhOiYINbgEAZ1Yyl-40" vertex="1">
          <mxGeometry x="133" width="134" height="44" as="geometry" />
        </mxCell>
        <mxCell id="Aa0VNhOiYINbgEAZ1Yyl-43" value="name" style="shape=partialRectangle;html=1;whiteSpace=wrap;connectable=0;fillColor=none;top=0;left=0;bottom=0;right=0;overflow=hidden;" parent="Aa0VNhOiYINbgEAZ1Yyl-40" vertex="1">
          <mxGeometry x="267" width="133" height="44" as="geometry" />
        </mxCell>
        <mxCell id="Aa0VNhOiYINbgEAZ1Yyl-44" value="" style="shape=partialRectangle;html=1;whiteSpace=wrap;collapsible=0;dropTarget=0;pointerEvents=0;fillColor=none;top=0;left=0;bottom=0;right=0;points=[[0,0.5],[1,0.5]];portConstraint=eastwest;" parent="Aa0VNhOiYINbgEAZ1Yyl-35" vertex="1">
          <mxGeometry y="117" width="400" height="43" as="geometry" />
        </mxCell>
        <mxCell id="Aa0VNhOiYINbgEAZ1Yyl-45" value="" style="shape=partialRectangle;html=1;whiteSpace=wrap;connectable=0;fillColor=none;top=0;left=0;bottom=0;right=0;overflow=hidden;" parent="Aa0VNhOiYINbgEAZ1Yyl-44" vertex="1">
          <mxGeometry width="133" height="43" as="geometry" />
        </mxCell>
        <mxCell id="Aa0VNhOiYINbgEAZ1Yyl-46" value="" style="shape=partialRectangle;html=1;whiteSpace=wrap;connectable=0;fillColor=none;top=0;left=0;bottom=0;right=0;overflow=hidden;" parent="Aa0VNhOiYINbgEAZ1Yyl-44" vertex="1">
          <mxGeometry x="133" width="134" height="43" as="geometry" />
        </mxCell>
        <mxCell id="Aa0VNhOiYINbgEAZ1Yyl-47" value="" style="shape=partialRectangle;html=1;whiteSpace=wrap;connectable=0;fillColor=none;top=0;left=0;bottom=0;right=0;overflow=hidden;" parent="Aa0VNhOiYINbgEAZ1Yyl-44" vertex="1">
          <mxGeometry x="267" width="133" height="43" as="geometry" />
        </mxCell>
        <mxCell id="xh86Ql2Wlu-i7z2BAQE6-3" value="User Directory Files" style="shape=table;html=1;whiteSpace=wrap;startSize=30;container=1;collapsible=0;childLayout=tableLayout;fontStyle=1;align=center;" parent="1" vertex="1">
          <mxGeometry x="1255" y="1050" width="250" height="70.00000000000023" as="geometry" />
        </mxCell>
        <mxCell id="xh86Ql2Wlu-i7z2BAQE6-4" value="" style="shape=partialRectangle;html=1;whiteSpace=wrap;collapsible=0;dropTarget=0;pointerEvents=0;fillColor=none;top=0;left=0;bottom=0;right=0;points=[[0,0.5],[1,0.5]];portConstraint=eastwest;" parent="xh86Ql2Wlu-i7z2BAQE6-3" vertex="1">
          <mxGeometry y="30" width="250" height="40" as="geometry" />
        </mxCell>
        <mxCell id="xh86Ql2Wlu-i7z2BAQE6-5" value="Index" style="shape=partialRectangle;html=1;whiteSpace=wrap;connectable=0;fillColor=none;top=0;left=0;bottom=0;right=0;overflow=hidden;" parent="xh86Ql2Wlu-i7z2BAQE6-4" vertex="1">
          <mxGeometry width="83" height="40" as="geometry" />
        </mxCell>
        <mxCell id="xh86Ql2Wlu-i7z2BAQE6-6" value="File name" style="shape=partialRectangle;html=1;whiteSpace=wrap;connectable=0;fillColor=none;top=0;left=0;bottom=0;right=0;overflow=hidden;" parent="xh86Ql2Wlu-i7z2BAQE6-4" vertex="1">
          <mxGeometry x="83" width="84" height="40" as="geometry" />
        </mxCell>
        <mxCell id="xh86Ql2Wlu-i7z2BAQE6-7" value="Opearation" style="shape=partialRectangle;html=1;whiteSpace=wrap;connectable=0;fillColor=none;top=0;left=0;bottom=0;right=0;overflow=hidden;" parent="xh86Ql2Wlu-i7z2BAQE6-4" vertex="1">
          <mxGeometry x="167" width="83" height="40" as="geometry" />
        </mxCell>
        <mxCell id="xh86Ql2Wlu-i7z2BAQE6-19" value="Drag And Drop On The Page Itself" style="rounded=1;whiteSpace=wrap;html=1;" parent="1" vertex="1">
          <mxGeometry x="940" y="1070" width="120" height="60" as="geometry" />
        </mxCell>
        <mxCell id="xh86Ql2Wlu-i7z2BAQE6-22" value="" style="edgeStyle=orthogonalEdgeStyle;rounded=0;orthogonalLoop=1;jettySize=auto;html=1;" parent="1" source="xh86Ql2Wlu-i7z2BAQE6-21" target="Aa0VNhOiYINbgEAZ1Yyl-10" edge="1">
          <mxGeometry relative="1" as="geometry" />
        </mxCell>
        <mxCell id="xh86Ql2Wlu-i7z2BAQE6-21" value="A modal For Upload" style="rounded=1;whiteSpace=wrap;html=1;" parent="1" vertex="1">
          <mxGeometry x="1100" y="1070" width="120" height="60" as="geometry" />
        </mxCell>
        <mxCell id="G3KKAj7c0JO1ttu0XNYy-2" style="edgeStyle=orthogonalEdgeStyle;rounded=0;orthogonalLoop=1;jettySize=auto;html=1;entryX=0;entryY=0.5;entryDx=0;entryDy=0;" edge="1" parent="1" source="xh86Ql2Wlu-i7z2BAQE6-4" target="G3KKAj7c0JO1ttu0XNYy-8">
          <mxGeometry relative="1" as="geometry">
            <mxPoint x="1540" y="1030.0285714285715" as="targetPoint" />
          </mxGeometry>
        </mxCell>
        <mxCell id="G3KKAj7c0JO1ttu0XNYy-3" value="" style="shape=table;html=1;whiteSpace=wrap;startSize=0;container=1;collapsible=0;childLayout=tableLayout;" vertex="1" parent="1">
          <mxGeometry x="1570" y="1040" width="180" height="120.00000000000023" as="geometry" />
        </mxCell>
        <mxCell id="G3KKAj7c0JO1ttu0XNYy-4" value="" style="shape=partialRectangle;html=1;whiteSpace=wrap;collapsible=0;dropTarget=0;pointerEvents=0;fillColor=none;top=0;left=0;bottom=0;right=0;points=[[0,0.5],[1,0.5]];portConstraint=eastwest;" vertex="1" parent="G3KKAj7c0JO1ttu0XNYy-3">
          <mxGeometry width="180" height="40" as="geometry" />
        </mxCell>
        <mxCell id="G3KKAj7c0JO1ttu0XNYy-5" value="View" style="shape=partialRectangle;html=1;whiteSpace=wrap;connectable=0;fillColor=none;top=0;left=0;bottom=0;right=0;overflow=hidden;" vertex="1" parent="G3KKAj7c0JO1ttu0XNYy-4">
          <mxGeometry width="60" height="40" as="geometry" />
        </mxCell>
        <mxCell id="G3KKAj7c0JO1ttu0XNYy-6" value="" style="shape=partialRectangle;html=1;whiteSpace=wrap;connectable=0;fillColor=none;top=0;left=0;bottom=0;right=0;overflow=hidden;" vertex="1" parent="G3KKAj7c0JO1ttu0XNYy-4">
          <mxGeometry x="60" width="60" height="40" as="geometry" />
        </mxCell>
        <mxCell id="G3KKAj7c0JO1ttu0XNYy-7" value="" style="shape=partialRectangle;html=1;whiteSpace=wrap;connectable=0;fillColor=none;top=0;left=0;bottom=0;right=0;overflow=hidden;" vertex="1" parent="G3KKAj7c0JO1ttu0XNYy-4">
          <mxGeometry x="120" width="60" height="40" as="geometry" />
        </mxCell>
        <mxCell id="G3KKAj7c0JO1ttu0XNYy-8" value="" style="shape=partialRectangle;html=1;whiteSpace=wrap;collapsible=0;dropTarget=0;pointerEvents=0;fillColor=none;top=0;left=0;bottom=0;right=0;points=[[0,0.5],[1,0.5]];portConstraint=eastwest;" vertex="1" parent="G3KKAj7c0JO1ttu0XNYy-3">
          <mxGeometry y="40" width="180" height="40" as="geometry" />
        </mxCell>
        <mxCell id="G3KKAj7c0JO1ttu0XNYy-9" value="Download" style="shape=partialRectangle;html=1;whiteSpace=wrap;connectable=0;fillColor=none;top=0;left=0;bottom=0;right=0;overflow=hidden;" vertex="1" parent="G3KKAj7c0JO1ttu0XNYy-8">
          <mxGeometry width="60" height="40" as="geometry" />
        </mxCell>
        <mxCell id="G3KKAj7c0JO1ttu0XNYy-10" value="" style="shape=partialRectangle;html=1;whiteSpace=wrap;connectable=0;fillColor=none;top=0;left=0;bottom=0;right=0;overflow=hidden;" vertex="1" parent="G3KKAj7c0JO1ttu0XNYy-8">
          <mxGeometry x="60" width="60" height="40" as="geometry" />
        </mxCell>
        <mxCell id="G3KKAj7c0JO1ttu0XNYy-11" value="" style="shape=partialRectangle;html=1;whiteSpace=wrap;connectable=0;fillColor=none;top=0;left=0;bottom=0;right=0;overflow=hidden;" vertex="1" parent="G3KKAj7c0JO1ttu0XNYy-8">
          <mxGeometry x="120" width="60" height="40" as="geometry" />
        </mxCell>
        <mxCell id="G3KKAj7c0JO1ttu0XNYy-12" value="" style="shape=partialRectangle;html=1;whiteSpace=wrap;collapsible=0;dropTarget=0;pointerEvents=0;fillColor=none;top=0;left=0;bottom=0;right=0;points=[[0,0.5],[1,0.5]];portConstraint=eastwest;" vertex="1" parent="G3KKAj7c0JO1ttu0XNYy-3">
          <mxGeometry y="80" width="180" height="40" as="geometry" />
        </mxCell>
        <mxCell id="G3KKAj7c0JO1ttu0XNYy-13" value="Delete" style="shape=partialRectangle;html=1;whiteSpace=wrap;connectable=0;fillColor=none;top=0;left=0;bottom=0;right=0;overflow=hidden;" vertex="1" parent="G3KKAj7c0JO1ttu0XNYy-12">
          <mxGeometry width="60" height="40" as="geometry" />
        </mxCell>
        <mxCell id="G3KKAj7c0JO1ttu0XNYy-14" value="" style="shape=partialRectangle;html=1;whiteSpace=wrap;connectable=0;fillColor=none;top=0;left=0;bottom=0;right=0;overflow=hidden;" vertex="1" parent="G3KKAj7c0JO1ttu0XNYy-12">
          <mxGeometry x="60" width="60" height="40" as="geometry" />
        </mxCell>
        <mxCell id="G3KKAj7c0JO1ttu0XNYy-15" value="" style="shape=partialRectangle;html=1;whiteSpace=wrap;connectable=0;fillColor=none;top=0;left=0;bottom=0;right=0;overflow=hidden;" vertex="1" parent="G3KKAj7c0JO1ttu0XNYy-12">
          <mxGeometry x="120" width="60" height="40" as="geometry" />
        </mxCell>
        <mxCell id="G3KKAj7c0JO1ttu0XNYy-17" value="Table" style="shape=table;html=1;whiteSpace=wrap;startSize=30;container=1;collapsible=0;childLayout=tableLayout;fontStyle=1;align=center;" vertex="1" parent="1">
          <mxGeometry x="1670" y="840" width="180" height="150" as="geometry" />
        </mxCell>
        <mxCell id="G3KKAj7c0JO1ttu0XNYy-18" value="" style="shape=partialRectangle;html=1;whiteSpace=wrap;collapsible=0;dropTarget=0;pointerEvents=0;fillColor=none;top=0;left=0;bottom=0;right=0;points=[[0,0.5],[1,0.5]];portConstraint=eastwest;" vertex="1" parent="G3KKAj7c0JO1ttu0XNYy-17">
          <mxGeometry y="30" width="180" height="40" as="geometry" />
        </mxCell>
        <mxCell id="G3KKAj7c0JO1ttu0XNYy-19" value="" style="shape=partialRectangle;html=1;whiteSpace=wrap;connectable=0;fillColor=none;top=0;left=0;bottom=0;right=0;overflow=hidden;" vertex="1" parent="G3KKAj7c0JO1ttu0XNYy-18">
          <mxGeometry width="60" height="40" as="geometry" />
        </mxCell>
        <mxCell id="G3KKAj7c0JO1ttu0XNYy-20" value="" style="shape=partialRectangle;html=1;whiteSpace=wrap;connectable=0;fillColor=none;top=0;left=0;bottom=0;right=0;overflow=hidden;" vertex="1" parent="G3KKAj7c0JO1ttu0XNYy-18">
          <mxGeometry x="60" width="60" height="40" as="geometry" />
        </mxCell>
        <mxCell id="G3KKAj7c0JO1ttu0XNYy-21" value="" style="shape=partialRectangle;html=1;whiteSpace=wrap;connectable=0;fillColor=none;top=0;left=0;bottom=0;right=0;overflow=hidden;" vertex="1" parent="G3KKAj7c0JO1ttu0XNYy-18">
          <mxGeometry x="120" width="60" height="40" as="geometry" />
        </mxCell>
        <mxCell id="G3KKAj7c0JO1ttu0XNYy-22" value="" style="shape=partialRectangle;html=1;whiteSpace=wrap;collapsible=0;dropTarget=0;pointerEvents=0;fillColor=none;top=0;left=0;bottom=0;right=0;points=[[0,0.5],[1,0.5]];portConstraint=eastwest;" vertex="1" parent="G3KKAj7c0JO1ttu0XNYy-17">
          <mxGeometry y="70" width="180" height="40" as="geometry" />
        </mxCell>
        <mxCell id="G3KKAj7c0JO1ttu0XNYy-23" value="" style="shape=partialRectangle;html=1;whiteSpace=wrap;connectable=0;fillColor=none;top=0;left=0;bottom=0;right=0;overflow=hidden;" vertex="1" parent="G3KKAj7c0JO1ttu0XNYy-22">
          <mxGeometry width="60" height="40" as="geometry" />
        </mxCell>
        <mxCell id="G3KKAj7c0JO1ttu0XNYy-24" value="" style="shape=partialRectangle;html=1;whiteSpace=wrap;connectable=0;fillColor=none;top=0;left=0;bottom=0;right=0;overflow=hidden;" vertex="1" parent="G3KKAj7c0JO1ttu0XNYy-22">
          <mxGeometry x="60" width="60" height="40" as="geometry" />
        </mxCell>
        <mxCell id="G3KKAj7c0JO1ttu0XNYy-25" value="" style="shape=partialRectangle;html=1;whiteSpace=wrap;connectable=0;fillColor=none;top=0;left=0;bottom=0;right=0;overflow=hidden;" vertex="1" parent="G3KKAj7c0JO1ttu0XNYy-22">
          <mxGeometry x="120" width="60" height="40" as="geometry" />
        </mxCell>
        <mxCell id="G3KKAj7c0JO1ttu0XNYy-26" value="" style="shape=partialRectangle;html=1;whiteSpace=wrap;collapsible=0;dropTarget=0;pointerEvents=0;fillColor=none;top=0;left=0;bottom=0;right=0;points=[[0,0.5],[1,0.5]];portConstraint=eastwest;" vertex="1" parent="G3KKAj7c0JO1ttu0XNYy-17">
          <mxGeometry y="110" width="180" height="40" as="geometry" />
        </mxCell>
        <mxCell id="G3KKAj7c0JO1ttu0XNYy-27" value="" style="shape=partialRectangle;html=1;whiteSpace=wrap;connectable=0;fillColor=none;top=0;left=0;bottom=0;right=0;overflow=hidden;" vertex="1" parent="G3KKAj7c0JO1ttu0XNYy-26">
          <mxGeometry width="60" height="40" as="geometry" />
        </mxCell>
        <mxCell id="G3KKAj7c0JO1ttu0XNYy-28" value="" style="shape=partialRectangle;html=1;whiteSpace=wrap;connectable=0;fillColor=none;top=0;left=0;bottom=0;right=0;overflow=hidden;" vertex="1" parent="G3KKAj7c0JO1ttu0XNYy-26">
          <mxGeometry x="60" width="60" height="40" as="geometry" />
        </mxCell>
        <mxCell id="G3KKAj7c0JO1ttu0XNYy-29" value="" style="shape=partialRectangle;html=1;whiteSpace=wrap;connectable=0;fillColor=none;top=0;left=0;bottom=0;right=0;overflow=hidden;" vertex="1" parent="G3KKAj7c0JO1ttu0XNYy-26">
          <mxGeometry x="120" width="60" height="40" as="geometry" />
        </mxCell>
      </root>
    </mxGraphModel>
  </diagram>
</mxfile>
